<svg version="1.0" xmlns="http://www.w3.org/2000/svg"
 width="66" height="72" viewBox="0 0 66 72"
 preserveAspectRatio="xMidYMid meet">
<g transform="translate(0,72) scale(0.1,-0.1)" fill="#10aae1" stroke="none">
<path d="M353 523 l67 -68 67 68 68 67 -135 0 -135 0 68 -67z"/>
<path d="M190 495 l-65 -65 67 -67 c58 -58 69 -65 83 -53 9 7 15 20 14 29 -3 36 2 48 26 59 14 6 31 9 38 6 8 -3 20 2 27 11 12 14 5 25 -51 81 -35 35 -66 64 -69 64 -3 0 -35 -29 -70 -65z"/>
<path d="M652 410 c0 -19 2 -27 5 -17 2 9 2 25 0 35 -3 9 -5 1 -5 -18z"/>
<path d="M400 385 c-6 -8 -9 -19 -5 -25 17 -28 -35 -77 -68 -64 -8 3 -20 -2 -27 -11 -12 -14 -5 -25 53 -83 l67 -67 70 70 70 69 -68 63 c-37 34 -70 62 -73 63 -4 0 -12 -7 -19 -15z"/>
<path d="M192 187 c-34 -34 -62 -66 -62 -70 0 -4 58 -7 130 -7 72 0 130 4 130 8 0 8 -122 132 -131 132 -2 0 -33 -28 -67 -63z"/>
<path d="M645 241 c-3 -5 -1 -12 5 -16 5 -3 10 1 10 9 0 18 -6 21 -15 7z"/>
</g>
</svg>
